<mxfile host="app.diagrams.net" modified="2024-05-14T11:25:08.786Z" agent="Mozilla/5.0 (Windows NT 10.0; Win64; x64) AppleWebKit/537.36 (KHTML, like Gecko) Chrome/124.0.0.0 Safari/537.36 Edg/124.0.0.0" etag="JknG5ktuLul80FXtb6hG" version="21.7.2" type="device">
  <diagram name="Seite-1" id="-MTGtXefK3majUFLsf6Y">
    <mxGraphModel dx="663" dy="543" grid="1" gridSize="10" guides="1" tooltips="1" connect="1" arrows="1" fold="1" page="1" pageScale="1" pageWidth="827" pageHeight="1169" math="0" shadow="0">
      <root>
        <mxCell id="0" />
        <mxCell id="1" parent="0" />
        <mxCell id="yZO5eRKQ6H3A7r2IIjEw-33" value="" style="rounded=0;whiteSpace=wrap;html=1;fillColor=none;dashed=1;strokeColor=#007FFF;" vertex="1" parent="1">
          <mxGeometry x="350" y="140" width="190" height="140" as="geometry" />
        </mxCell>
        <mxCell id="yZO5eRKQ6H3A7r2IIjEw-17" value="" style="rounded=0;whiteSpace=wrap;html=1;fillColor=none;dashed=1;strokeColor=#006600;" vertex="1" parent="1">
          <mxGeometry x="140" y="110" width="200" height="180" as="geometry" />
        </mxCell>
        <mxCell id="yZO5eRKQ6H3A7r2IIjEw-1" value="USB-C" style="rounded=1;whiteSpace=wrap;html=1;" vertex="1" parent="1">
          <mxGeometry x="50" y="70" width="70" height="230" as="geometry" />
        </mxCell>
        <mxCell id="yZO5eRKQ6H3A7r2IIjEw-4" value="D+/D-&lt;br&gt;D-/D+" style="edgeStyle=orthogonalEdgeStyle;rounded=0;orthogonalLoop=1;jettySize=auto;html=1;entryX=1.013;entryY=0.13;entryDx=0;entryDy=0;entryPerimeter=0;startArrow=classic;startFill=1;endArrow=classic;endFill=1;exitX=0;exitY=0.5;exitDx=0;exitDy=0;" edge="1" parent="1" source="yZO5eRKQ6H3A7r2IIjEw-2" target="yZO5eRKQ6H3A7r2IIjEw-1">
          <mxGeometry x="-0.3617" y="-15" relative="1" as="geometry">
            <mxPoint x="130" y="100" as="targetPoint" />
            <Array as="points">
              <mxPoint x="150" y="75" />
              <mxPoint x="150" y="100" />
            </Array>
            <mxPoint as="offset" />
          </mxGeometry>
        </mxCell>
        <mxCell id="yZO5eRKQ6H3A7r2IIjEw-19" value="D+/D-" style="edgeStyle=orthogonalEdgeStyle;rounded=0;orthogonalLoop=1;jettySize=auto;html=1;entryX=0;entryY=0.5;entryDx=0;entryDy=0;" edge="1" parent="1" source="yZO5eRKQ6H3A7r2IIjEw-2" target="yZO5eRKQ6H3A7r2IIjEw-18">
          <mxGeometry x="0.0526" y="10" relative="1" as="geometry">
            <mxPoint as="offset" />
          </mxGeometry>
        </mxCell>
        <mxCell id="yZO5eRKQ6H3A7r2IIjEw-2" value="USB 2.0 MUX/Redriver" style="rounded=1;whiteSpace=wrap;html=1;" vertex="1" parent="1">
          <mxGeometry x="190" y="50" width="120" height="50" as="geometry" />
        </mxCell>
        <mxCell id="yZO5eRKQ6H3A7r2IIjEw-7" value="CC" style="edgeStyle=orthogonalEdgeStyle;rounded=0;orthogonalLoop=1;jettySize=auto;html=1;endArrow=classic;endFill=1;startArrow=classic;startFill=1;" edge="1" parent="1" source="yZO5eRKQ6H3A7r2IIjEw-6" target="yZO5eRKQ6H3A7r2IIjEw-1">
          <mxGeometry x="0.1667" y="15" relative="1" as="geometry">
            <mxPoint as="offset" />
          </mxGeometry>
        </mxCell>
        <mxCell id="yZO5eRKQ6H3A7r2IIjEw-27" style="edgeStyle=orthogonalEdgeStyle;rounded=0;orthogonalLoop=1;jettySize=auto;html=1;entryX=0;entryY=0.75;entryDx=0;entryDy=0;" edge="1" parent="1" source="yZO5eRKQ6H3A7r2IIjEw-6" target="yZO5eRKQ6H3A7r2IIjEw-18">
          <mxGeometry relative="1" as="geometry" />
        </mxCell>
        <mxCell id="yZO5eRKQ6H3A7r2IIjEw-6" value="CC-Control" style="rounded=1;whiteSpace=wrap;html=1;fillColor=#006600;fontColor=#ffffff;" vertex="1" parent="1">
          <mxGeometry x="190" y="120" width="120" height="30" as="geometry" />
        </mxCell>
        <mxCell id="yZO5eRKQ6H3A7r2IIjEw-9" value="USB Connector" style="text;html=1;strokeColor=none;fillColor=none;align=center;verticalAlign=middle;whiteSpace=wrap;rounded=0;" vertex="1" parent="1">
          <mxGeometry x="30" y="30" width="100" height="30" as="geometry" />
        </mxCell>
        <mxCell id="yZO5eRKQ6H3A7r2IIjEw-11" value="" style="edgeStyle=orthogonalEdgeStyle;rounded=0;orthogonalLoop=1;jettySize=auto;html=1;entryX=1;entryY=0.75;entryDx=0;entryDy=0;startArrow=classic;startFill=1;" edge="1" parent="1" source="yZO5eRKQ6H3A7r2IIjEw-10" target="yZO5eRKQ6H3A7r2IIjEw-1">
          <mxGeometry x="0.1999" y="17" relative="1" as="geometry">
            <mxPoint x="15" y="-9" as="offset" />
          </mxGeometry>
        </mxCell>
        <mxCell id="yZO5eRKQ6H3A7r2IIjEw-10" value="Integrated PD Controller" style="rounded=1;whiteSpace=wrap;html=1;fillColor=#006600;fontColor=#ffffff;" vertex="1" parent="1">
          <mxGeometry x="190" y="230" width="110" height="50" as="geometry" />
        </mxCell>
        <mxCell id="yZO5eRKQ6H3A7r2IIjEw-16" style="edgeStyle=orthogonalEdgeStyle;rounded=0;orthogonalLoop=1;jettySize=auto;html=1;startArrow=classic;startFill=1;" edge="1" parent="1" source="yZO5eRKQ6H3A7r2IIjEw-15" target="yZO5eRKQ6H3A7r2IIjEw-10">
          <mxGeometry relative="1" as="geometry">
            <Array as="points">
              <mxPoint x="245" y="190" />
            </Array>
          </mxGeometry>
        </mxCell>
        <mxCell id="yZO5eRKQ6H3A7r2IIjEw-29" style="edgeStyle=orthogonalEdgeStyle;rounded=0;orthogonalLoop=1;jettySize=auto;html=1;entryX=0;entryY=0.5;entryDx=0;entryDy=0;" edge="1" parent="1" source="yZO5eRKQ6H3A7r2IIjEw-15" target="yZO5eRKQ6H3A7r2IIjEw-26">
          <mxGeometry relative="1" as="geometry" />
        </mxCell>
        <mxCell id="yZO5eRKQ6H3A7r2IIjEw-32" style="edgeStyle=orthogonalEdgeStyle;rounded=0;orthogonalLoop=1;jettySize=auto;html=1;" edge="1" parent="1" source="yZO5eRKQ6H3A7r2IIjEw-15" target="yZO5eRKQ6H3A7r2IIjEw-22">
          <mxGeometry relative="1" as="geometry">
            <Array as="points">
              <mxPoint x="360" y="195" />
              <mxPoint x="360" y="185" />
            </Array>
          </mxGeometry>
        </mxCell>
        <mxCell id="yZO5eRKQ6H3A7r2IIjEw-15" value="Protection" style="rounded=1;whiteSpace=wrap;html=1;fillColor=#006600;fontColor=#ffffff;" vertex="1" parent="1">
          <mxGeometry x="260" y="170" width="66" height="50" as="geometry" />
        </mxCell>
        <mxCell id="yZO5eRKQ6H3A7r2IIjEw-18" value="MCU" style="rounded=1;whiteSpace=wrap;html=1;" vertex="1" parent="1">
          <mxGeometry x="413" y="40" width="94" height="60" as="geometry" />
        </mxCell>
        <mxCell id="yZO5eRKQ6H3A7r2IIjEw-24" style="edgeStyle=orthogonalEdgeStyle;rounded=0;orthogonalLoop=1;jettySize=auto;html=1;" edge="1" parent="1" source="yZO5eRKQ6H3A7r2IIjEw-22" target="yZO5eRKQ6H3A7r2IIjEw-18">
          <mxGeometry relative="1" as="geometry" />
        </mxCell>
        <mxCell id="yZO5eRKQ6H3A7r2IIjEw-30" style="edgeStyle=orthogonalEdgeStyle;rounded=0;orthogonalLoop=1;jettySize=auto;html=1;" edge="1" parent="1" source="yZO5eRKQ6H3A7r2IIjEw-22" target="yZO5eRKQ6H3A7r2IIjEw-23">
          <mxGeometry relative="1" as="geometry" />
        </mxCell>
        <mxCell id="yZO5eRKQ6H3A7r2IIjEw-22" value="Driver" style="rounded=1;whiteSpace=wrap;html=1;fillColor=#5888bb;strokeColor=#000000;fontColor=#FFFFFF;" vertex="1" parent="1">
          <mxGeometry x="377" y="155" width="73" height="60" as="geometry" />
        </mxCell>
        <mxCell id="yZO5eRKQ6H3A7r2IIjEw-25" style="edgeStyle=orthogonalEdgeStyle;rounded=0;orthogonalLoop=1;jettySize=auto;html=1;" edge="1" parent="1" source="yZO5eRKQ6H3A7r2IIjEw-23" target="yZO5eRKQ6H3A7r2IIjEw-18">
          <mxGeometry relative="1" as="geometry" />
        </mxCell>
        <mxCell id="yZO5eRKQ6H3A7r2IIjEw-40" style="edgeStyle=orthogonalEdgeStyle;rounded=0;orthogonalLoop=1;jettySize=auto;html=1;" edge="1" parent="1" source="yZO5eRKQ6H3A7r2IIjEw-23" target="yZO5eRKQ6H3A7r2IIjEw-38">
          <mxGeometry relative="1" as="geometry" />
        </mxCell>
        <mxCell id="yZO5eRKQ6H3A7r2IIjEw-43" value="&lt;font style=&quot;font-size: 8px;&quot;&gt;{12V|24V|48V}&lt;/font&gt;" style="edgeLabel;html=1;align=center;verticalAlign=middle;resizable=0;points=[];" vertex="1" connectable="0" parent="yZO5eRKQ6H3A7r2IIjEw-40">
          <mxGeometry x="0.046" y="-2" relative="1" as="geometry">
            <mxPoint x="-2" y="-17" as="offset" />
          </mxGeometry>
        </mxCell>
        <mxCell id="yZO5eRKQ6H3A7r2IIjEw-23" value="Switch" style="rounded=1;whiteSpace=wrap;html=1;fillColor=#5888bb;strokeColor=#000000;fontColor=#FFFFFF;" vertex="1" parent="1">
          <mxGeometry x="470" y="155" width="60" height="60" as="geometry" />
        </mxCell>
        <mxCell id="yZO5eRKQ6H3A7r2IIjEw-41" style="edgeStyle=orthogonalEdgeStyle;rounded=0;orthogonalLoop=1;jettySize=auto;html=1;" edge="1" parent="1" source="yZO5eRKQ6H3A7r2IIjEw-26">
          <mxGeometry relative="1" as="geometry">
            <mxPoint x="560" y="255" as="targetPoint" />
          </mxGeometry>
        </mxCell>
        <mxCell id="yZO5eRKQ6H3A7r2IIjEw-26" value="DC DC" style="rounded=1;whiteSpace=wrap;html=1;fillColor=#5888bb;strokeColor=#000000;fontColor=#FFFFFF;" vertex="1" parent="1">
          <mxGeometry x="400" y="240" width="60" height="30" as="geometry" />
        </mxCell>
        <mxCell id="yZO5eRKQ6H3A7r2IIjEw-35" style="edgeStyle=orthogonalEdgeStyle;rounded=0;orthogonalLoop=1;jettySize=auto;html=1;" edge="1" parent="1" source="yZO5eRKQ6H3A7r2IIjEw-34" target="yZO5eRKQ6H3A7r2IIjEw-18">
          <mxGeometry relative="1" as="geometry" />
        </mxCell>
        <mxCell id="yZO5eRKQ6H3A7r2IIjEw-34" value="ADC" style="rounded=1;whiteSpace=wrap;html=1;" vertex="1" parent="1">
          <mxGeometry x="540" y="55" width="40" height="30" as="geometry" />
        </mxCell>
        <mxCell id="yZO5eRKQ6H3A7r2IIjEw-37" style="edgeStyle=orthogonalEdgeStyle;rounded=0;orthogonalLoop=1;jettySize=auto;html=1;entryX=1;entryY=0.5;entryDx=0;entryDy=0;" edge="1" parent="1" source="yZO5eRKQ6H3A7r2IIjEw-36" target="yZO5eRKQ6H3A7r2IIjEw-34">
          <mxGeometry relative="1" as="geometry">
            <Array as="points">
              <mxPoint x="630" y="70" />
            </Array>
          </mxGeometry>
        </mxCell>
        <mxCell id="yZO5eRKQ6H3A7r2IIjEw-39" style="edgeStyle=orthogonalEdgeStyle;rounded=0;orthogonalLoop=1;jettySize=auto;html=1;entryX=0.5;entryY=0;entryDx=0;entryDy=0;startArrow=classic;startFill=1;endArrow=none;endFill=0;" edge="1" parent="1" source="yZO5eRKQ6H3A7r2IIjEw-36" target="yZO5eRKQ6H3A7r2IIjEw-38">
          <mxGeometry relative="1" as="geometry" />
        </mxCell>
        <mxCell id="yZO5eRKQ6H3A7r2IIjEw-36" value="Temperature Sensor" style="rounded=1;whiteSpace=wrap;html=1;" vertex="1" parent="1">
          <mxGeometry x="590" y="85" width="80" height="50" as="geometry" />
        </mxCell>
        <mxCell id="yZO5eRKQ6H3A7r2IIjEw-38" value="Heater" style="rounded=1;whiteSpace=wrap;html=1;" vertex="1" parent="1">
          <mxGeometry x="590" y="155" width="80" height="60" as="geometry" />
        </mxCell>
        <mxCell id="yZO5eRKQ6H3A7r2IIjEw-42" value="MCU&lt;br&gt;Voltage" style="text;html=1;strokeColor=none;fillColor=none;align=center;verticalAlign=middle;whiteSpace=wrap;rounded=0;" vertex="1" parent="1">
          <mxGeometry x="560" y="240" width="50" height="30" as="geometry" />
        </mxCell>
      </root>
    </mxGraphModel>
  </diagram>
</mxfile>
